<svg data-v-0dd9719b="" version="1.0" xmlns="http://www.w3.org/2000/svg" xmlns:xlink="http://www.w3.org/1999/xlink" width="100%" height="100%" viewBox="0 0 340.000000 250.000000" preserveAspectRatio="xMidYMid meet" color-interpolation-filters="sRGB" style="margin: auto;"> <rect data-v-0dd9719b="" x="0" y="0" width="100%" height="100%" fill="#fff" fill-opacity="1" class="background"></rect> <rect data-v-0dd9719b="" x="0" y="0" width="100%" height="100%" fill="url(#watermark)" fill-opacity="1" class="watermarklayer"></rect> <g data-v-0dd9719b="" fill="#333" class="icon-text-wrapper icon-svg-group iconsvg" transform="translate(48.0050048828125,94.91727256774902)"><g class="iconsvg-imagesvg" transform="translate(0,0)"><g><rect fill="#333" fill-opacity="0" stroke-width="2" x="0" y="0" width="60" height="60.16545500125345" class="image-rect"></rect> <svg x="0" y="0" width="60" height="60.16545500125345" filtersec="colorsb1095402133" class="image-svg-svg primary" style="overflow: visible;"><svg xmlns="http://www.w3.org/2000/svg" viewBox="0.000011444091796875 0.02045980840921402 155.1766815185547 155.60470581054688"><path d="M15.66 104.89c2.89-6.77 5.65-13.21 8.38-19.65Q36 57.07 47.92 28.89c.78-1.85 1.56-3 3.91-2.85a27.78 27.78 0 0 0 6.28-.5c2.48-.39 2.53.46 1.68 2.44C53.83 41.85 48 55.75 42.05 69.64c-6.33 14.91-12.62 29.83-19 44.7a3.84 3.84 0 0 0 .59 4.44 68.76 68.76 0 0 0 29.7 22.33c2.14.84 3 .67 4-1.64C71.9 104.91 86.6 70.41 101.18 35.85c1-2.39 1.91-3.13 4.27-1.71 2 1.22 5.38 1.23 6.13 3.14s-1.37 4.32-2.29 6.49q-22.44 52.94-45 105.83c-2.28 5.35-1.36 4.71-6.7 3.26C22 143.15-1.65 111.14.09 74.19a77.13 77.13 0 0 1 57.77-71.5A73.67 73.67 0 0 1 84.68.37C88 .72 88 .67 86.74 3.6c-2.51 6-2.51 6-9 6-34.28-.18-63.67 26.1-67.41 60.08a68.32 68.32 0 0 0 4.43 33.37c.24.5.47.95.9 1.84z" fill="#1981c6"></path><path d="M138.52 48.35C136.2 53.79 134 58.91 131.84 64l-28.31 66.69c-1.2 2.83-2.16 3.24-5.06 2.23-6.37-2.23-6.34-2.22-3.68-8.45q18.21-42.78 36.37-85.6c.53-1.25.85-2.2-.18-3.47a68.94 68.94 0 0 0-29.31-21.52c-2.07-.79-2.85-.24-3.64 1.63Q76 67.7 53.76 119.84c-1.77 4.17-1 3.85-5.12 2.1-6-2.55-6.06-2.54-3.51-8.54Q68 59.48 90.93 5.54c1.68-4 1.71-3.95 5.76-2.95 36.85 9.11 62.37 45 58 82.71-3.69 31.82-21 53.82-50.79 65.55a70.76 70.76 0 0 1-33.74 4.3c-2.33-.25-2.88-.87-1.87-3.18 2.81-6.41 2.71-6.45 9.63-6.38 34.07.33 64.14-27 67.21-60.92a70.59 70.59 0 0 0-4.52-32.57 9.66 9.66 0 0 0-2.09-3.75z" fill="#e8830d"></path></svg></svg> <!----></g></g> <g transform="translate(67,1.3914775848388672)"><g data-gra="path-name" fill-rule="" class="tp-name iconsvg-namesvg" transform="translate(0,0)"><g transform="scale(1)"><g><path d="M26.5-19.44Q30.96-13.68 34.6-10.19 38.25-6.71 43.92-2.61L43.92-2.61 37.53 4.91Q32.17 0.18 29.02-3.98 25.88-8.14 23.49-13.99L23.49-13.99Q22.05-10.08 19.66-6.84L19.66-6.84Q22.14-5.44 23.96-4 25.79-2.56 28.13-0.14L28.13-0.14 21.6 5.17Q18.99 0.32 16.47-3.15L16.47-3.15Q11.88 1.3 4.59 4.68L4.59 4.68 1.57 0.14Q7.56-4.5 10.91-9 14.26-13.5 15.88-19.48L15.88-19.48 3.1-19.48 3.1-26.5 17.19-26.5Q17.82-31.14 17.86-36.99L17.86-36.99 26.68-36.9Q26.59-30.73 26.19-26.5L26.19-26.5 41.85-26.5 41.85-19.44 26.5-19.44ZM84.73-9.31L76.09-9.31 76.09-1.08Q76.09 4.68 72.05 4.68L72.05 4.68 66.6 4.68 65.97 0.27 64.13 0.27 64.13-1.3 68.4-1.3 68.4-9.31 58.81-9.31 58.81-27.13 65.97-27.13Q66.33-28.17 66.78-29.61L66.78-29.61 57.64-29.61 57.64-18.27Q57.64-11.52 55.55-5.24 53.46 1.03 49.77 4.72L49.77 4.72 46.3 2.65Q49.77-5.22 49.86-18.5L49.86-18.5 49.95-35.64 57.64-35.64 57.64-32.76Q58.45-35.64 61.88-35.64L61.88-35.64 87.39-35.64 87.39-29.65 71.59-29.61 74.66-28.66Q74.3-28.13 73.53-27.13L73.53-27.13 84.73-27.13 84.73-9.31ZM77.58-20.52L77.58-22.27 66.02-22.27 66.02-20.52 77.58-20.52ZM77.58-16.16L66.02-16.16 66.02-14.26 77.58-14.26 77.58-16.16ZM60.3-9.04L67.14-5.71Q64.75-2.34 62.75-0.29 60.75 1.75 57.33 4.05L57.33 4.05 54.67 1.8Q56.7-1.17 57.96-3.62 59.22-6.08 60.3-9.04L60.3-9.04ZM79.52-8.28Q82.08-6.66 84.15-4.75 86.22-2.83 88.25-0.22L88.25-0.22 81.67 4.05Q80.46 1.08 79.27-1.3 78.07-3.69 76.5-6.12L76.5-6.12 79.52-8.28ZM127.8-5Q126.5-3.01 125.41-1.67L125.41-1.67 131.49-1.67 131.49 3.78 106.16 3.78 106.16-1.67 111.96-1.67Q111.56-3.28 110.66-5.54L110.66-5.54 112.41-6.48 109.39-6.48 109.39-17.59Q108.31-16.56 107.23-15.75L107.23-15.75 105.21-18.27Q107.59-21.73 108.59-23.54L108.59-23.54Q107.37-24.97 106.2-26.19L106.2-26.19 106.2-23.13 102.51-23.13 102.51-20.47Q105.21-18 108.36-14.13L108.36-14.13 103.95-11.12Q103.09-13.28 102.51-14.71L102.51-14.71 102.51 4.63 96.03 4.63 96.03-13.28Q94.86-11.25 92.97-8.87L92.97-8.87 90.5-10.75Q92.3-14.76 93.08-17.05 93.87-19.35 94.64-23.09L94.64-23.09 91.44-23.09 91.44-29.2 96.08-29.2 96.08-36.54 102.51-36.54 102.51-29.25 106.2-29.25 106.2-27.09 108.09-29.07Q109.94-28.3 110.66-27.95L110.66-27.95 111.42-30.24 106.25-30.2 106.25-35.41 112.55-35.46 112.68-36.41 118.75-35.23 118.62-35.73 122.53-36.85 124.47-32.76Q125.37-33.75 126.94-36.09L126.94-36.09 130.68-32.45Q128.2-30.6 126.27-29.52L126.27-29.52Q127.08-28.17 127.75-27.27L127.75-27.27Q128.56-28.21 130.14-30.51L130.14-30.51 133.69-26.95Q131.85-25.52 130.09-24.52L130.09-24.52Q131.18-23.36 134.24-20.34L134.24-20.34 129.56-14.8Q128.93-15.52 127.98-16.61L127.98-16.61 127.98-6.48 123.97-6.48 127.8-5ZM122.04-25.74Q120.6-28.75 118.84-34.88L118.84-34.88Q117.54-29.34 115.74-25.74L115.74-25.74 122.04-25.74ZM113.67-22.32Q112.5-20.7 110.61-18.72L110.61-18.72 115.52-18.72 115.52-16.02Q116.1-18.72 118.8-18.72L118.8-18.72 126.27-18.72Q125.1-20.2 123.93-22.09L123.93-22.09 123.93-20.65 113.67-20.65 113.67-22.32ZM121.86-13.81L115.52-13.81 115.52-11.38 121.86-11.38 121.86-13.81ZM114.84-6.48Q115.83-5.63 116.44-4.86 117.05-4.09 118.22-2.38L118.22-2.38 116.64-1.67 120.11-1.67Q120.96-4.14 121.36-6.48L121.36-6.48 114.84-6.48ZM166.59-9.86L166.59-7.33 177.25-7.33 177.25-1.84 166.59-1.84 166.59 4.54 159.16 4.54 159.16-1.84 148.41-1.84 148.41-7.33 159.16-7.33 159.16-9.86 150.48-9.86 150.48-15.07 159.16-15.07 159.16-18.36Q154.89-16.83 150.39-15.93L150.39-15.93 148.95-19.62Q154.22-21.96 157.5-24.03L157.5-24.03Q154.71-26.41 152.37-29.38L152.37-29.38 154.53-31.23 150.62-31.23 150.62-36.31 169.92-36.31Q170.14-36.63 170.46-37.26L170.46-37.26 172.71-36.31 172.75-36.31 172.75-36.27 177.39-34.38Q174.38-28.44 169.69-24.48L169.69-24.48Q173.93-22.9 178.56-21.69L178.56-21.69 175.59-15.43Q170.59-16.83 166.59-18.59L166.59-18.59 166.59-15.07 175.23-15.07 175.23-9.86 166.59-9.86ZM145.17-25.88Q143.87-27.49 141.82-29.65 139.77-31.81 138.33-32.98L138.33-32.98 140.81-36.49Q142.92-35.82 145.62-34.47 148.32-33.12 150.07-31.86L150.07-31.86 145.17-25.88ZM156.06-31.23Q159.34-29.11 162.5-27.58L162.5-27.58Q164.38-29.2 166.19-31.23L166.19-31.23 156.06-31.23ZM143.73-14.49Q142.38-16.16 140.35-18.29 138.33-20.43 136.89-21.6L136.89-21.6 139.32-25.29Q141.57-24.61 144.11-23.36 146.66-22.09 148.59-20.65L148.59-20.65 143.73-14.49ZM163.31-20.2Q162.04-19.57 160.78-19.04L160.78-19.04 165.65-19.04Q164.03-19.8 163.31-20.2L163.31-20.2ZM143.73-13.09L148.41-11.65Q147.96-7.38 146.72-3.1 145.49 1.17 143.59 4.05L143.59 4.05 135.99 0.09Q138.24-2.56 140.26-6.17 142.29-9.76 143.73-13.09L143.73-13.09Z" transform="translate(-1.5699999332427979, 37.2599983215332)"></path></g> <!----> <!----> <!----> <!----> <!----> <!----> <!----></g></g> <g data-gra="path-slogan" fill-rule="" class="tp-slogan iconsvg-slogansvg" fill="#333" transform="translate(5,48.43000030517578)"><rect x="0" height="1" y="3.9750003814697266" width="24.14999771118164"></rect> <rect height="1" y="3.9750003814697266" width="24.14999771118164" x="142.83999252319336"></rect> <g transform="translate(27.14999771118164,0)"><g transform="scale(1)"><path d="M3.09-7.59L0.19-7.59L0.19-8.58L7.13-8.58L7.13-7.59L4.22-7.59L4.22 0L3.09 0L3.09-7.59ZM13.83 0L12.98-2.48L9.52-2.48L8.63 0L7.45 0L10.69-8.58L12-8.58L15.09 0L13.83 0ZM11.25-7.31L9.89-3.52L12.56-3.52L11.30-7.31L11.25-7.31ZM16.31-8.58L17.48-8.58L17.48 0L16.31 0L16.31-8.58ZM26.39-8.58L23.16-3.47L23.16 0L21.98 0L21.98-3.47L18.75-8.58L20.11-8.58L22.55-4.45L25.03-8.58L26.39-8.58ZM33.09-3.19L33.09-8.58L34.27-8.58L34.27-3.05Q34.13 0.05 30.75 0.14L30.75 0.14Q27.61 0.05 27.47-2.86L27.47-2.86L27.47-8.58L28.64-8.58L28.64-3.19Q28.69-0.84 30.80-0.80L30.80-0.80Q33.09-0.84 33.09-3.19L33.09-3.19ZM41.72 0L40.88-2.48L37.41-2.48L36.52 0L35.34 0L38.58-8.58L39.89-8.58L42.98 0L41.72 0ZM39.14-7.31L37.78-3.52L40.45-3.52L39.19-7.31L39.14-7.31ZM45.42-8.58L49.73-1.64L49.73-8.58L50.86-8.58L50.86 0L49.55 0L45.19-6.94L45.14-6.94L45.14 0L44.02 0L44.02-8.58L45.42-8.58ZM63.14-6.05L63.14-6.05L62.02-6.05Q61.59-7.78 59.63-7.83L59.63-7.83Q56.91-7.69 56.81-4.36L56.81-4.36Q56.81-0.80 59.67-0.80L59.67-0.80Q61.64-0.84 62.11-3.19L62.11-3.19L63.23-3.19Q62.72 0.05 59.44 0.14L59.44 0.14Q55.69 0 55.59-4.31L55.59-4.31Q55.78-8.63 59.63-8.81L59.63-8.81Q62.67-8.72 63.14-6.05ZM65.77-5.06L70.27-5.06L70.27-8.58L71.44-8.58L71.44 0L70.27 0L70.27-3.98L65.77-3.98L65.77 0L64.59 0L64.59-8.58L65.77-8.58L65.77-5.06ZM74.53-1.03L79.69-1.03L79.69 0L73.36 0L73.36-8.58L79.59-8.58L79.59-7.59L74.53-7.59L74.53-4.92L79.22-4.92L79.22-3.89L74.53-3.89L74.53-1.03ZM82.59-8.58L86.91-1.64L86.91-8.58L88.03-8.58L88.03 0L86.72 0L82.36-6.94L82.31-6.94L82.31 0L81.19 0L81.19-8.58L82.59-8.58ZM96.23-3.61L93.61-3.61L93.61-4.59L97.36-4.59L97.36 0L96.61 0L96.33-1.08Q95.34 0.09 93.52 0.14L93.52 0.14Q91.78 0.14 90.84-0.75L90.84-0.75Q89.44-2.06 89.48-4.36L89.48-4.36Q89.81-8.63 93.56-8.81L93.56-8.81Q96.75-8.63 97.22-6L97.22-6L96.09-6Q95.63-7.78 93.52-7.83L93.52-7.83Q90.84-7.64 90.70-4.31L90.70-4.31Q90.70-0.75 93.56-0.75L93.56-0.75Q94.59-0.75 95.34-1.31L95.34-1.31Q96.28-2.06 96.23-3.61L96.23-3.61ZM99.98-1.03L105.28-1.03L105.28 0L98.53 0L98.53-0.94L103.78-7.59L98.91-7.59L98.91-8.58L105.28-8.58L105.28-7.59L99.98-1.03ZM107.72-1.03L112.88-1.03L112.88 0L106.55 0L106.55-8.58L112.78-8.58L112.78-7.59L107.72-7.59L107.72-4.92L112.41-4.92L112.41-3.89L107.72-3.89L107.72-1.03Z" transform="translate(-0.1875, 8.8125)"></path></g></g></g></g></g><defs v-gra="od"></defs></svg>